<svg id="Capa_1" enable-background="new 0 0 512 512" height="512" viewBox="0 0 512 512" width="512" xmlns="http://www.w3.org/2000/svg"><g><path d="m109.602 168.885c0-28.912 14.185-56.138 37.946-72.829 3.371-2.369 4.186-7.023 1.816-10.395-2.369-3.371-7.022-4.187-10.395-1.816-27.734 19.482-44.291 51.273-44.291 85.04v42.638s-44.163.079-45.643.202v-42.84c0-82.436 67.067-149.503 149.504-149.503h115.012c15.136 0 30.076 2.265 44.405 6.73 3.937 1.225 8.118-.969 9.344-4.904 1.226-3.934-.969-8.118-4.904-9.344-15.768-4.914-32.203-7.407-48.846-7.407h-115.01c-90.666 0-164.428 73.762-164.428 164.427v46.296c-19.942 7.79-34.112 27.196-34.112 49.862v84.947c0 29.511 24.008 53.519 53.519 53.519h33.708c12.343 0 22.386-10.043 22.386-22.386zm-14.913 212.237c0 4.115-3.347 7.462-7.462 7.462h-33.708c-21.281 0-38.595-17.314-38.595-38.595v-84.947c0-21.281 17.314-38.595 38.595-38.595h41.17z"/><path d="m477.979 215.217v-46.332c0-58.832-31.835-113.572-83.08-142.861-3.577-2.043-8.135-.801-10.181 2.776-2.045 3.578-.802 8.136 2.776 10.181 46.608 26.638 75.562 76.414 75.562 129.904v42.847c-1.509-.128-45.642-.209-45.642-.209v-42.638c0-57.27-46.592-103.861-103.861-103.861h-115.013c-8.968 0-17.88 1.151-26.488 3.423-3.986 1.051-6.363 5.134-5.312 9.119 1.051 3.986 5.14 6.36 9.119 5.312 7.367-1.944 14.998-2.929 22.681-2.929h115.012c49.04 0 88.937 39.897 88.937 88.937l-.102 165.213c0 4.122 3.34 7.462 7.462 7.462s7.462-3.34 7.462-7.462v-107.652h41.17c21.281 0 38.595 17.314 38.595 38.595v84.947c0 21.281-17.314 38.595-38.595 38.595h-33.708c-4.115 0-7.462-3.347-7.462-7.462v-11.858c0-4.122-3.34-7.462-7.462-7.462s-7.462 3.34-7.462 7.462v11.858c0 12.343 10.043 22.386 22.386 22.386h9.804c-1.395 26.619-20.162 49.549-46.016 56.144-2.634-14.624-15.445-25.757-30.816-25.757h-43.376c-17.271 0-31.322 14.05-31.322 31.321v11.005c0 17.27 14.05 31.321 31.322 31.321h43.376c17.27 0 31.321-14.05 31.321-31.321v-1.371c34.042-7.137 59.004-36.82 60.457-71.342h8.959c29.511 0 53.519-24.008 53.519-53.519v-84.947c-.001-22.632-14.128-42.013-34.022-49.825zm-103.838 261.004c0 9.041-7.356 16.397-16.397 16.397h-43.376c-9.042 0-16.398-7.356-16.398-16.397v-11.005c0-9.041 7.356-16.397 16.398-16.397h43.376c9.041 0 16.397 7.356 16.397 16.397z"/><path d="m315.014 366.83 25.089 26.462c2.971 3.143 7.506 4.099 11.449 2.517 3.996-1.592 6.579-5.402 6.579-9.704v-31.269c18.674-12.447 29.781-33.13 29.781-55.603v-7.782c0-36.845-29.976-66.821-66.821-66.821h-22.308c.121-1.645.198-12.729.198-12.729 0-36.845-29.976-66.821-66.821-66.821h-40.237c-36.845 0-66.82 29.976-66.82 66.821v7.783c0 22.472 11.106 43.154 29.78 55.601v35.075c0 4.302 2.583 8.112 6.579 9.704 3.942 1.582 8.479.626 11.448-2.516l28.698-30.268c.466-.493 1.124-.775 1.804-.775h10.823c-.12 1.635-.203 3.281-.203 4.946v7.782c0 36.845 29.976 66.821 66.821 66.821h32.356c.679 0 1.337.282 1.805.776zm-111.603-95.25c-4.758 0-9.363 1.98-12.635 5.431l-20.971 22.119v-25.202c0-4.264-2.145-8.178-5.738-10.47-15.054-9.6-24.041-25.965-24.041-43.776v-7.782c0-28.617 23.281-51.898 51.897-51.898h40.237c28.617 0 51.898 23.281 51.898 51.898 0 0-.081 11.088-.236 12.729h-2.968c-14.561 0-28.039 4.696-39.029 12.633l-3.737-3.737c2.137-3.396 3.681-7.199 4.482-11.267h6.604c4.122 0 7.462-3.34 7.462-7.462s-3.34-7.462-7.462-7.462h-7.057c-.87-3.322-2.245-6.441-4.029-9.277l4.127-4.127c2.914-2.915 2.914-7.639 0-10.554-2.915-2.913-7.639-2.913-10.554 0l-4.127 4.127c-3.117-1.961-6.578-3.419-10.272-4.266v-5.825c0-4.122-3.34-7.462-7.462-7.462s-7.462 3.34-7.462 7.462v5.825c-3.694.847-7.155 2.304-10.272 4.266l-4.127-4.127c-2.915-2.913-7.639-2.913-10.554 0-2.914 2.915-2.914 7.639 0 10.554l4.127 4.127c-1.961 3.117-3.419 6.578-4.266 10.272h-5.825c-4.122 0-7.462 3.34-7.462 7.462s3.34 7.462 7.462 7.462h5.825c.847 3.694 2.304 7.155 4.266 10.272l-4.127 4.127c-2.914 2.915-2.914 7.639 0 10.554 2.915 2.913 7.638 2.913 10.554 0l4.127-4.127c3.117 1.961 6.578 3.419 10.272 4.266v5.825c0 4.122 3.34 7.462 7.462 7.462s7.462-3.34 7.462-7.462v-5.825c3.694-.847 7.155-2.304 10.272-4.266l3.222 3.222c-6.144 6.964-10.875 15.204-13.707 24.279zm6.389-37.309c-10.19 0-18.48-8.29-18.48-18.48s8.29-18.48 18.48-18.48 18.48 8.29 18.48 18.48-8.29 18.48-18.48 18.48zm19.156 64.961v-7.782c0-28.617 23.281-51.898 51.898-51.898h40.237c28.617 0 51.898 23.281 51.898 51.898v7.782c0 17.812-8.987 34.176-24.042 43.777-3.594 2.292-5.739 6.207-5.739 10.47v21.397l-17.362-18.312c-3.272-3.454-7.878-5.434-12.637-5.434h-32.356c-28.617 0-51.897-23.281-51.897-51.898z"/><circle cx="298.932" cy="335.979" r="7.073"/><path d="m323.303 275.972c-.66-12.703-11.144-22.854-23.871-23.111-.166-.004-.33-.006-.496-.006-12.142 0-22.487 8.951-24.171 21.009-.156 1.116-.235 2.259-.235 3.395 0 4.122 3.34 7.462 7.462 7.462s7.462-3.34 7.462-7.462c0-.448.031-.896.091-1.331.662-4.74 4.81-8.206 9.587-8.147 4.942.1 9.012 4.037 9.267 8.964.137 2.634-.783 5.133-2.592 7.037-1.81 1.906-4.251 2.957-6.874 2.957-4.122 0-7.462 3.34-7.462 7.462v17.715c0 4.122 3.34 7.462 7.462 7.462s7.462-3.34 7.462-7.462v-11.432c3.861-1.246 7.404-3.443 10.235-6.426 4.654-4.901 7.024-11.325 6.673-18.086z"/></g></svg>